<?xml version="1.0" standalone="no"?>
<!DOCTYPE svg PUBLIC "-//W3C//DTD SVG 20010904//EN"
 "http://www.w3.org/TR/2001/REC-SVG-20010904/DTD/svg10.dtd">
<svg version="1.0" xmlns="http://www.w3.org/2000/svg"
 width="96.000000pt" height="96.000000pt" viewBox="0 0 96.000000 96.000000"
 preserveAspectRatio="xMidYMid meet">
<metadata>
Created by potrace 1.11, written by Peter Selinger 2001-2013
</metadata>
<g transform="translate(0.000000,96.000000) scale(0.100000,-0.100000)"
fill="#000000" stroke="none">
<path d="M608 895 c-5 -5 -63 -16 -103 -19 -11 0 -24 -6 -30 -13 -5 -7 -25
-15 -44 -18 -19 -3 -39 -9 -45 -12 -6 -4 -3 3 7 14 9 11 17 23 17 26 0 10 -23
4 -33 -8 -6 -6 -10 -6 -13 2 -4 9 -11 7 -26 -7 -11 -10 -38 -22 -60 -25 -25
-5 -49 -18 -68 -38 -16 -17 -33 -28 -37 -24 -4 5 -1 13 7 18 11 8 9 9 -10 4
-31 -8 -86 -67 -107 -114 -9 -20 -17 -58 -19 -86 -2 -27 -6 -86 -10 -131 -6
-87 10 -144 41 -144 18 0 18 8 0 40 -23 40 -18 126 12 212 24 70 28 77 48 72
18 -4 25 1 36 24 l13 30 19 -21 c14 -15 21 -18 24 -9 3 6 10 12 16 12 6 0 21
10 34 22 20 18 23 19 23 5 0 -9 -6 -17 -14 -17 -8 0 -17 -7 -20 -16 -4 -12 -2
-15 9 -11 8 4 17 2 20 -3 10 -16 25 -11 18 5 -3 10 5 24 20 38 14 12 28 38 32
59 12 65 57 80 111 37 43 -34 38 -33 69 -13 23 15 24 15 23 -16 -1 -41 18 -62
36 -38 12 16 15 15 31 -16 11 -19 26 -37 34 -40 9 -3 22 -9 29 -12 6 -3 12 -1
12 5 0 6 -6 11 -12 11 -7 0 -18 11 -25 25 -10 22 -9 25 8 25 13 0 31 -18 51
-50 17 -27 35 -50 39 -50 13 0 11 6 -11 47 -20 38 -19 53 6 53 8 0 14 -9 14
-21 0 -17 5 -20 24 -17 20 4 27 -3 50 -53 26 -57 26 -58 15 -181 -6 -68 -15
-131 -20 -140 -5 -10 -9 -28 -9 -41 0 -12 -9 -39 -20 -60 -11 -20 -15 -37 -10
-37 6 0 18 17 26 38 9 20 22 51 29 67 15 34 33 118 33 155 0 14 5 50 11 80 6
30 12 62 13 70 0 8 5 20 10 27 6 7 5 19 -1 32 -6 11 -11 46 -11 78 0 52 -4 63
-27 86 -43 41 -138 78 -192 76 -25 -1 -55 1 -67 5 -11 3 -23 4 -26 1z m132
-55 c13 -11 20 -23 16 -27 -10 -10 -40 11 -44 31 -4 21 0 20 28 -4z m63 -6
c51 -27 79 -51 65 -57 -9 -4 -9 -8 -3 -14 6 -4 11 -25 13 -45 3 -33 1 -36 -17
-31 -20 5 -30 33 -12 33 5 0 4 14 -2 30 -12 32 -26 37 -45 18 -9 -9 -12 -8
-12 6 0 9 5 14 10 11 19 -12 10 9 -17 37 -31 32 -26 35 20 12z m-453 2 c0 -2
-7 -7 -16 -10 -8 -3 -12 -2 -9 4 6 10 25 14 25 6z m220 -17 c0 -6 -4 -7 -10
-4 -5 3 -10 11 -10 16 0 6 5 7 10 4 6 -3 10 -11 10 -16z m-275 -9 c-3 -5 -11
-10 -16 -10 -6 0 -7 5 -4 10 3 6 11 10 16 10 6 0 7 -4 4 -10z m345 -25 c0 -8
-2 -15 -4 -15 -2 0 -6 7 -10 15 -3 8 -1 15 4 15 6 0 10 -7 10 -15z m130 -36
c0 -16 -19 -9 -30 10 -17 33 -11 48 10 22 11 -13 20 -27 20 -32z m-426 7 c-3
-14 -10 -26 -15 -26 -11 0 -11 3 1 36 13 33 23 26 14 -10z m-184 0 c0 -3 -4
-8 -10 -11 -5 -3 -10 -1 -10 4 0 6 5 11 10 11 6 0 10 -2 10 -4z"/>
<path d="M214 590 c-30 -12 -50 -50 -48 -93 1 -48 53 -102 87 -91 24 8 77 54
61 54 -6 0 -19 -9 -29 -20 -31 -34 -50 -24 -21 11 14 17 26 37 26 45 0 20 18
17 23 -3 2 -10 3 0 1 22 -3 28 -12 47 -29 63 -28 24 -38 25 -71 12z m71 -31
c4 -5 -2 -9 -13 -9 -10 0 -28 -9 -41 -21 -27 -25 -39 -18 -22 15 13 24 65 34
76 15z m-15 -50 c0 -16 -20 -49 -30 -49 -7 0 -8 43 -1 58 3 7 31 0 31 -9z"/>
<path d="M623 589 c-11 -4 -23 -16 -27 -26 -6 -14 -5 -16 5 -5 7 6 19 12 27
12 12 0 12 -3 2 -15 -7 -8 -20 -15 -29 -15 -16 0 -18 -11 -12 -67 2 -18 38
-53 56 -53 8 0 30 14 50 31 25 22 35 39 35 60 0 16 -5 29 -11 29 -5 0 -7 5 -4
10 16 25 -52 54 -92 39z m52 -39 c3 -5 1 -10 -4 -10 -6 0 -11 5 -11 10 0 6 2
10 4 10 3 0 8 -4 11 -10z m-42 -79 c-9 -12 -25 20 -18 36 7 16 9 15 15 -7 4
-14 5 -27 3 -29z m80 27 c-8 -32 -33 -58 -55 -58 -27 0 -22 13 12 28 17 8 28
18 24 23 -6 11 3 29 16 29 4 0 6 -10 3 -22z"/>
<path d="M111 434 c0 -11 3 -14 6 -6 3 7 2 16 -1 19 -3 4 -6 -2 -5 -13z"/>
<path d="M86 288 c20 -65 91 -120 229 -178 11 -5 42 -18 68 -29 27 -11 87 -25
135 -31 79 -10 91 -9 144 11 32 12 58 25 58 30 0 5 6 9 13 9 7 0 26 14 42 30
16 17 23 30 17 30 -7 0 -15 -6 -18 -14 -6 -16 -84 -60 -141 -80 -30 -10 -52
-11 -108 -2 -68 12 -87 18 -170 56 -22 10 -65 30 -97 45 -37 17 -75 46 -111
85 -59 65 -72 73 -61 38z"/>
<path d="M431 291 c-10 -6 -2 -9 22 -8 21 0 37 5 37 9 0 11 -41 10 -59 -1z"/>
<path d="M386 252 c-3 -5 -2 -22 3 -38 6 -22 17 -32 49 -44 48 -17 75 -7 80
28 5 30 -60 42 -88 17 -19 -17 -20 -17 -22 1 0 10 -1 25 -1 32 1 14 -13 16
-21 4z"/>
<path d="M555 160 c3 -5 8 -10 11 -10 2 0 4 5 4 10 0 6 -5 10 -11 10 -5 0 -7
-4 -4 -10z"/>
</g>
</svg>
